# Blender v2.82 (sub 7) OBJ File: ''
# www.blender.org
mtllib MessageScreen.mtl
o Cube
v 3.619483 0.163903 -0.858714
v 3.793280 -0.207583 -1.000000
v 3.619483 0.163903 0.858714
v 3.793280 -0.207583 1.000000
v -3.619483 0.163903 -0.858714
v -3.793280 -0.207583 -1.000000
v -3.619483 0.163903 0.858714
v -3.793280 -0.207583 1.000000
v 3.793280 0.163903 1.000000
v -3.793280 0.163903 1.000000
v 3.793280 0.163903 -1.000000
v -3.793280 0.163903 -1.000000
v 3.619483 0.015302 0.858714
v -3.619483 0.015302 0.858714
v 3.619483 0.015302 -0.858714
v -3.619483 0.015302 -0.858714
vt 0.642661 0.517661
vt 0.857339 0.517661
vt 0.857339 0.517661
vt 0.642661 0.517661
vt 0.375000 0.750000
vt 0.625000 0.750000
vt 0.625000 1.000000
vt 0.375000 1.000000
vt 0.375000 0.000000
vt 0.625000 0.000000
vt 0.625000 0.250000
vt 0.375000 0.250000
vt 0.125000 0.500000
vt 0.375000 0.500000
vt 0.125000 0.750000
vt 0.625000 0.500000
vt 0.642661 0.732339
vt 0.857339 0.732339
vt 0.875000 0.750000
vt 0.875000 0.500000
vt 0.857339 0.732339
vt 0.642661 0.732339
vn 0.0000 0.0000 1.0000
vn -1.0000 0.0000 0.0000
vn 0.0000 -1.0000 0.0000
vn 1.0000 0.0000 0.0000
vn 0.0000 0.0000 -1.0000
vn 0.0000 1.0000 -0.0000
usemtl Material
s off
f 1/1/1 5/2/1 16/3/1 15/4/1
f 4/5/1 9/6/1 10/7/1 8/8/1
f 8/9/2 10/10/2 12/11/2 6/12/2
f 6/13/3 2/14/3 4/5/3 8/15/3
f 2/14/4 11/16/4 9/6/4 4/5/4
f 6/12/5 12/11/5 11/16/5 2/14/5
f 3/17/6 7/18/6 10/19/6 9/6/6
f 1/1/6 3/17/6 9/6/6 11/16/6
f 7/18/6 5/2/6 12/20/6 10/19/6
f 5/2/6 1/1/6 11/16/6 12/20/6
f 15/4/6 16/3/6 14/21/6 13/22/6
f 3/17/2 1/1/2 15/4/2 13/22/2
f 5/2/4 7/18/4 14/21/4 16/3/4
f 7/18/5 3/17/5 13/22/5 14/21/5
